<?xml version="1.0" ?>
<svg version="1.1" viewBox="0 0 500 50" xmlns="http://www.w3.org/2000/svg">
	<rect fill="red" height="50" width="12.036108324974924" x="0" y="0"/>
	<rect fill="green" height="50" width="1.5045135406218655" x="12.036108324974924" y="0"/>
	<rect fill="red" height="50" width="17.051153460381144" x="13.540621865596789" y="0"/>
	<rect fill="green" height="50" width="1.5045135406218655" x="30.591775325977935" y="0"/>
	<rect fill="red" height="50" width="74.22266800401204" x="32.0962888665998" y="0"/>
	<rect fill="green" height="50" width="3.510531594784353" x="106.31895687061183" y="0"/>
	<rect fill="red" height="50" width="14.543630892678033" x="109.82948846539618" y="0"/>
	<rect fill="green" height="50" width="1.0030090270812437" x="124.37311935807422" y="0"/>
	<rect fill="red" height="50" width="25.576730190571716" x="125.37612838515547" y="0"/>
	<rect fill="green" height="50" width="0.5015045135406219" x="150.9528585757272" y="0"/>
	<rect fill="red" height="50" width="34.603811434302905" x="151.45436308926782" y="0"/>
	<rect fill="green" height="50" width="3.510531594784353" x="186.05817452357073" y="0"/>
	<rect fill="red" height="50" width="19.05717151454363" x="189.56870611835507" y="0"/>
	<rect fill="green" height="50" width="5.015045135406218" x="208.6258776328987" y="0"/>
	<rect fill="red" height="50" width="9.528585757271815" x="213.6409227683049" y="0"/>
	<rect fill="green" height="50" width="0.5015045135406219" x="223.16950852557673" y="0"/>
	<rect fill="red" height="50" width="10.030090270812437" x="223.67101303911735" y="0"/>
	<rect fill="green" height="50" width="0.5015045135406219" x="233.7011033099298" y="0"/>
	<rect fill="red" height="50" width="1.0030090270812437" x="234.20260782347043" y="0"/>
	<rect fill="green" height="50" width="0.5015045135406219" x="235.20561685055168" y="0"/>
	<rect fill="red" height="50" width="2.0060180541624875" x="235.7071213640923" y="0"/>
	<rect fill="green" height="50" width="5.015045135406218" x="237.7131394182548" y="0"/>
	<rect fill="red" height="50" width="1.5045135406218655" x="242.728184553661" y="0"/>
	<rect fill="green" height="50" width="1.0030090270812437" x="244.23269809428288" y="0"/>
	<rect fill="red" height="50" width="0.5015045135406219" x="245.23570712136413" y="0"/>
	<rect fill="green" height="50" width="1.0030090270812437" x="245.73721163490475" y="0"/>
	<rect fill="red" height="50" width="5.516549648946841" x="246.740220661986" y="0"/>
	<rect fill="green" height="50" width="4.513540621865597" x="252.25677031093284" y="0"/>
	<rect fill="red" height="50" width="8.525576730190572" x="256.77031093279845" y="0"/>
	<rect fill="green" height="50" width="1.5045135406218655" x="265.295887662989" y="0"/>
	<rect fill="red" height="50" width="8.525576730190572" x="266.8004012036109" y="0"/>
	<rect fill="green" height="50" width="3.009027081243731" x="275.3259779338014" y="0"/>
	<rect fill="red" height="50" width="5.015045135406218" x="278.33500501504517" y="0"/>
	<rect fill="green" height="50" width="3.510531594784353" x="283.3500501504514" y="0"/>
	<rect fill="red" height="50" width="4.513540621865597" x="286.8605817452358" y="0"/>
	<rect fill="green" height="50" width="5.516549648946841" x="291.3741223671014" y="0"/>
	<rect fill="red" height="50" width="16.54964894684052" x="296.89067201604826" y="0"/>
	<rect fill="green" height="50" width="1.5045135406218655" x="313.4403209628888" y="0"/>
	<rect fill="red" height="50" width="2.507522567703109" x="314.94483450351066" y="0"/>
	<rect fill="green" height="50" width="1.5045135406218655" x="317.4523570712138" y="0"/>
	<rect fill="red" height="50" width="2.0060180541624875" x="318.95687061183565" y="0"/>
	<rect fill="green" height="50" width="5.015045135406218" x="320.96288866599815" y="0"/>
	<rect fill="red" height="50" width="1.5045135406218655" x="325.9779338014044" y="0"/>
	<rect fill="green" height="50" width="0.5015045135406219" x="327.48244734202626" y="0"/>
	<rect fill="red" height="50" width="5.516549648946841" x="327.9839518555669" y="0"/>
	<rect fill="green" height="50" width="4.012036108324975" x="333.50050150451375" y="0"/>
	<rect fill="red" height="50" width="3.510531594784353" x="337.51253761283874" y="0"/>
	<rect fill="green" height="50" width="6.519558676028084" x="341.0230692076231" y="0"/>
	<rect fill="red" height="50" width="2.0060180541624875" x="347.5426278836512" y="0"/>
	<rect fill="green" height="50" width="4.513540621865597" x="349.5486459378137" y="0"/>
	<rect fill="red" height="50" width="8.02407221664995" x="354.06218655967933" y="0"/>
	<rect fill="green" height="50" width="1.0030090270812437" x="362.08625877632926" y="0"/>
	<rect fill="red" height="50" width="1.5045135406218655" x="363.0892678034105" y="0"/>
	<rect fill="green" height="50" width="0.5015045135406219" x="364.5937813440324" y="0"/>
	<rect fill="red" height="50" width="1.0030090270812437" x="365.095285857573" y="0"/>
	<rect fill="green" height="50" width="3.510531594784353" x="366.09829488465425" y="0"/>
	<rect fill="red" height="50" width="3.510531594784353" x="369.6088264794386" y="0"/>
	<rect fill="green" height="50" width="3.009027081243731" x="373.119358074223" y="0"/>
	<rect fill="red" height="50" width="1.0030090270812437" x="376.12838515546673" y="0"/>
	<rect fill="green" height="50" width="0.5015045135406219" x="377.131394182548" y="0"/>
	<rect fill="red" height="50" width="0.5015045135406219" x="377.6328986960886" y="0"/>
	<rect fill="green" height="50" width="5.015045135406218" x="378.1344032096292" y="0"/>
	<rect fill="red" height="50" width="10.030090270812437" x="383.14944834503547" y="0"/>
	<rect fill="green" height="50" width="9.528585757271815" x="393.1795386158479" y="0"/>
	<rect fill="red" height="50" width="0.5015045135406219" x="402.7081243731197" y="0"/>
	<rect fill="green" height="50" width="1.0030090270812437" x="403.2096288866603" y="0"/>
	<rect fill="red" height="50" width="3.510531594784353" x="404.21263791374156" y="0"/>
	<rect fill="green" height="50" width="7.021063189568706" x="407.7231695085259" y="0"/>
	<rect fill="red" height="50" width="1.5045135406218655" x="414.7442326980946" y="0"/>
	<rect fill="green" height="50" width="6.018054162487462" x="416.2487462387165" y="0"/>
	<rect fill="red" height="50" width="2.507522567703109" x="422.26680040120397" y="0"/>
	<rect fill="green" height="50" width="6.519558676028084" x="424.7743229689071" y="0"/>
	<rect fill="red" height="50" width="0.5015045135406219" x="431.2938816449352" y="0"/>
	<rect fill="green" height="50" width="3.510531594784353" x="431.7953861584758" y="0"/>
	<rect fill="red" height="50" width="2.0060180541624875" x="435.3059177532602" y="0"/>
	<rect fill="green" height="50" width="1.5045135406218655" x="437.3119358074227" y="0"/>
	<rect fill="red" height="50" width="0.5015045135406219" x="438.81644934804456" y="0"/>
	<rect fill="green" height="50" width="10.030090270812437" x="439.3179538615852" y="0"/>
	<rect fill="red" height="50" width="1.0030090270812437" x="449.3480441323976" y="0"/>
	<rect fill="green" height="50" width="2.0060180541624875" x="450.35105315947885" y="0"/>
	<rect fill="red" height="50" width="1.0030090270812437" x="452.35707121364135" y="0"/>
	<rect fill="green" height="50" width="4.513540621865597" x="453.3600802407226" y="0"/>
	<rect fill="red" height="50" width="1.5045135406218655" x="457.8736208625882" y="0"/>
	<rect fill="green" height="50" width="5.015045135406218" x="459.3781344032101" y="0"/>
	<rect fill="red" height="50" width="1.0030090270812437" x="464.3931795386163" y="0"/>
	<rect fill="green" height="50" width="14.042126379137413" x="465.39618856569757" y="0"/>
	<rect fill="red" height="50" width="0.5015045135406219" x="479.438314944835" y="0"/>
	<rect fill="green" height="50" width="4.012036108324975" x="479.9398194583756" y="0"/>
	<rect fill="red" height="50" width="12.537612838515546" x="483.9518555667006" y="0"/>
	<rect fill="green" height="50" width="3.510531594784353" x="496.48946840521614" y="0"/>
</svg>
